<svg id="svg" version="1.1" viewBox="0 0 300 261.62046908315574" width="300" height="261.62046908315574" xmlns="http://www.w3.org/2000/svg"><svg xmlns="http://www.w3.org/2000/svg"><defs><clipPath id="clip-1"><rect x="0" y="0" transform="scale(0.15991,0.15991)" width="1876" height="1636" fill="none"/></clipPath><linearGradient x1="145.45426" y1="155.30309" x2="131.56391" y2="135.31967" gradientUnits="userSpaceOnUse" id="color-1"><stop offset="0" stop-color="#008f92"/><stop offset="1" stop-color="#0d6dc3"/></linearGradient></defs><g clip-path="url(#clip-1)" fill="none" fill-rule="nonzero" stroke="none" stroke-width="1" stroke-linecap="butt" stroke-linejoin="miter" stroke-miterlimit="10" stroke-dasharray="" stroke-dashoffset="0" font-family="none" font-weight="none" font-size="none" text-anchor="none" style="mix-blend-mode: normal"><path d="M11.05462,6.64959c2.05873,-0.236 7.30855,-0.09531 9.57966,-0.0907l18.05613,0.00456l62.48284,0.02443l107.69296,0.06131c15.71482,-0.12133 31.42964,-0.15096 47.14286,-0.08893c9.72601,-0.02525 19.47441,-0.00908 29.19883,-0.00021c2.33635,0.12461 4.92217,-0.09827 6.87953,1.43258c2.49467,1.9493 2.13806,5.29729 2.18443,8.10998c0.02878,1.71461 -0.0032,3.44552 -0.0064,5.15885l-0.01439,16.56541l0.0048,54.91247v104.8177l-0.01599,33.96429c0.0016,5.79371 0.03038,11.58742 0.008,17.37953c-0.01599,4.24094 -2.47548,6.46055 -6.52452,6.91311c-6.32623,0.11514 -12.96429,0.01439 -19.32409,0.01439l-37.46962,0.0032l-113.49211,-0.0032l-71.77724,0.0016l-23.35906,0.0064c-4.21647,0 -8.42682,0.02079 -12.64068,-0.05917c-2.887,-0.05437 -5.67672,-2.58422 -5.76649,-5.48987c-0.12424,-4.02186 -0.05875,-8.11407 -0.05749,-12.14552l0.00929,-22.80224l-0.00704,-72.03822l-0.00533,-87.9379l0.00824,-28.5283c-0.00002,-4.59835 -0.08722,-9.22356 -0.01503,-13.81652c0.06716,-4.27348 3.38354,-6.17814 7.22792,-6.36902z" fill="#fffffe"/><path d="M45.52052,110.87862c5.34163,-0.09435 10.72868,0.11642 16.06215,0.04174c9.1476,-0.12777 18.75048,-0.83971 24.74744,7.70405c2.72543,3.88817 3.77095,8.70975 2.90069,13.37767c-0.96365,5.12639 -3.24243,7.57852 -7.33593,10.34824c3.92751,0.26706 6.0419,1.33593 7.87964,4.85565c0.86034,2.25512 1.01978,3.52276 1.25293,5.86823c-2.93763,0.19382 -6.36668,0.12233 -9.34334,0.12489l-15.13977,-0.01359c0.01199,-5.74222 -0.1209,-11.86951 0.0662,-17.57431l-21.05325,-0.01567c-0.23875,-7.62233 -0.1911,-17.08881 -0.03678,-24.7169z" fill="#117cd0"/><path d="M102.76919,124.74387c4.88172,-0.01551 11.07665,-0.45352 15.78566,0.62894c6.99691,1.60842 8.64339,10.93177 1.93177,14.38497c0.23252,0.09643 0.46359,0.19654 0.69291,0.30032c4.36887,1.98726 5.17676,7.0879 3.23523,11.12303c-2.15277,3.55203 -5.38769,4.65608 -9.43545,4.73651c-4.05448,0.08076 -8.11791,0.04558 -12.17399,0.04654c0.04686,-10.40677 0.03486,-20.8137 -0.03614,-31.22031z" fill="#117cd0"/><path d="M109.46258,142.18337c3.26258,-0.0299 8.73598,-0.74888 9.39451,3.56402c0.20405,1.33561 -0.28401,2.21786 -1.0476,3.22436c-2.27303,1.72932 -5.5049,1.35688 -8.325,1.34376z" fill="#fffffe"/><path d="M109.43971,130.46882c0.91679,-0.0064 1.86972,-0.01679 2.78332,-0.01679c3.14216,0.00032 5.05394,-0.04014 5.84248,3.40522c-0.26834,1.26972 -0.38348,1.58412 -1.17777,2.53705c-2.03811,1.33401 -5.00469,1.01594 -7.46946,1.02281z" fill="#fffffe"/><path d="M45.49462,138.50229l19.10517,0.03422l0.01791,31.61274l-19.11189,0.00959c0.0323,-10.46834 0.13225,-21.20277 -0.01119,-31.65656z" fill="#00a262"/><path d="M191.87527,124.74707l5.97122,-0.00896c-0.1935,10.19728 -0.03838,21.04861 -0.01439,31.27868c-1.36567,-0.13721 -4.36727,-0.06093 -5.93603,-0.09947l-0.01119,-2.84984c-2.72335,3.38108 -6.22388,3.92047 -10.26493,2.61125c-1.40725,-0.56418 -2.65938,-1.45602 -3.65405,-2.60149c-4.14019,-4.77601 -3.62846,-13.75171 1.26493,-17.91413c1.84062,-1.58811 4.24733,-2.35922 6.66844,-2.13582c2.76333,0.24611 4.27772,1.44563 5.98881,3.45544z" fill="#00a262"/><path d="M185.72015,138.82612c6.33742,-0.53028 7.90299,7.22799 3.87473,10.9081c-0.48134,0.43961 -1.26812,0.76023 -1.8726,1.02281c-7.02985,0.71802 -8.55864,-9.79414 -2.00213,-11.93092z" fill="#fffffe"/><path d="M246.85874,133.02697c6.49733,-0.76263 12.379,3.8952 13.1258,10.3943c0.7468,6.49893 -3.92431,12.3694 -10.42644,13.10021c-6.47814,0.72825 -12.32303,-3.92431 -13.06823,-10.40085c-0.7436,-6.47671 3.89552,-12.33374 10.36887,-13.09366z" fill="#00a262"/><path d="M247.57356,138.50309c7.05224,-0.35869 8.37793,10.32521 1.61834,12.46311c-6.85235,0.53491 -8.31237,-8.37761 -3.47495,-11.7411c0.53731,-0.37356 1.22175,-0.55299 1.85661,-0.72201z" fill="#fffffe"/><path d="M137.14414,133.09558c0.29696,-0.01967 0.59424,-0.03326 0.89168,-0.04078c2.69456,-0.06125 5.65762,0.88721 7.58204,2.80906c3.05453,3.05053 3.23332,6.61199 3.24547,10.62633c-5.12655,0.09211 -10.2467,-0.06636 -15.37372,0.07596c0.1967,0.76631 0.34046,1.30442 0.76855,1.9943c0.71994,1.1661 1.87388,1.99781 3.20757,2.31221c3.73145,0.91103 7.67095,-0.47783 10.85245,-2.36466c0.1927,0.70059 -0.43785,4.97926 -0.58433,5.98673c-1.70629,0.85059 -3.52676,1.44931 -5.4048,1.77777c-3.64877,0.64957 -7.74003,-0.0016 -10.79072,-2.13374c-6.08156,-4.25069 -5.99424,-15.44456 0.4508,-19.33881c1.72308,-1.0412 3.1951,-1.42436 5.15501,-1.70437z" fill="url(#color-1)"/><path d="M137.09312,137.87511c3.83491,-0.308 5.0338,1.06711 5.70528,4.69542c-1.19104,0.06908 -2.51066,0.05133 -3.71258,0.06045c-1.87564,0.02447 -3.7516,0.00368 -5.62628,-0.06205c0.16407,-0.63694 0.37004,-1.26221 0.61647,-1.87196c0.64813,-1.56636 1.51855,-2.2153 3.01711,-2.82186z" fill="#fffffe"/><path d="M163.18337,133.09462c4.27772,-0.34733 7.91578,1.33433 8.96962,5.84712c0.52292,2.23433 0.28625,4.9895 0.28465,7.31338l0.03038,9.71418c-2.04851,-0.02399 -4.09861,-0.03758 -6.14712,-0.0411c0.01119,-2.88502 0.49254,-12.64925 -0.55171,-14.91972c-0.44776,-0.97404 -1.22175,-1.80528 -2.26439,-2.12767c-1.3033,-0.40346 -2.69456,0.17639 -3.8274,0.7927c-2.2911,2.16093 -1.73507,5.69632 -1.72356,8.63028c0.01231,2.55368 0.01167,5.10736 -0.00208,7.66087c-2.11343,0.01455 -4.22719,0.00048 -6.3403,-0.04238c-0.0806,-7.42004 -0.00928,-14.96482 -0.00784,-22.39462l6.32127,0.00112c-0.0379,0.92175 -0.22708,1.85021 -0.38667,2.76173c2.04355,-2.0661 2.80346,-2.70096 5.64515,-3.1959z" fill="#00a262"/><path d="M66.56114,155.44829l24.30752,0.03006c-0.81604,4.31002 -1.44931,7.02058 -4.4314,10.37559c-5.30405,5.35714 -12.93022,4.32409 -19.86237,4.29371c-0.13513,-4.65512 -0.04494,-10.01866 -0.01375,-14.69936z" fill="#00a262"/><path d="M213.65245,127.28651l6.10075,0.00896l-0.05277,6.24003c1.70949,0.01535 3.42058,-0.00416 5.13006,-0.05853c-0.04478,1.8291 -0.04638,3.65885 -0.0032,5.48795l-5.10288,0.01039c-0.0016,2.62404 -0.13913,7.867 0.22068,10.26924c0.5677,0.77495 0.72601,0.88385 1.47122,1.4629c1.42964,-0.00096 2.01972,-0.13849 3.38699,-0.50517c-0.14072,1.342 -0.08795,2.79771 -0.07516,4.15538c0.01759,0.43001 0.06716,0.64158 -0.12473,1.02729c-2.32036,1.89739 -7.21375,1.03081 -9.23028,-1.09382c-2.11247,-2.22777 -1.72228,-5.34611 -1.73987,-8.19051c-0.01599,-2.41247 0.02399,-4.78817 0.03998,-7.17569l-3.14872,0.03982l-0.03998,-5.46045l3.17431,0.04813z" fill="#00a262"/><path d="M201.80437,133.51423c2.0661,0.03678 4.1322,0.03454 6.19829,-0.00656l0.03358,22.47777c-1.89659,-0.08204 -4.27612,-0.01695 -6.20949,-0.01855c0.03838,-7.48417 0.03038,-14.9685 -0.02239,-22.45267z" fill="#00a262"/><path d="M227.69456,133.51519c2.0645,0.07468 4.17058,0.01727 6.23987,-0.01551c-0.22868,7.30139 -0.06716,15.04829 -0.01279,22.37431c-0.758,0.23428 -5.13006,0.08923 -6.22068,0.06668z" fill="#00a262"/><path d="M230.00053,124.129c0.87633,-0.02591 1.79904,-0.0662 2.58902,0.38667c0.76279,0.43385 1.3209,1.15458 1.54797,2.00181c0.60288,2.19003 -0.30224,3.62543 -2.42111,4.12804c-0.58849,0.06876 -1.96215,0.12985 -2.42431,-0.13353c-3.01279,-1.72164 -2.48987,-5.34611 0.70842,-6.383z" fill="#00a262"/><path d="M204.27825,124.13779c3.23827,-0.16887 4.95416,2.17644 3.59968,5.36002c-0.32783,0.77031 -1.10181,0.97964 -1.8742,1.14995c-0.99467,0.07468 -1.97655,0.21077 -2.90565,-0.29168c-1.6791,-0.90768 -2.09648,-3.12361 -1.17377,-4.72836c0.60928,-1.05896 1.23934,-1.20368 2.35394,-1.48993z" fill="#00a262"/></g></svg></svg>